<svg width="553" height="534" viewBox="0 0 553 534" fill="none" xmlns="http://www.w3.org/2000/svg">
<g clip-path="url(#clip0_26_2597)">
<path d="M102.132 129.27C108.054 132.853 113.211 137.568 117.311 143.145C121.41 148.722 124.371 155.051 126.024 161.772C127.677 168.493 127.99 175.474 126.946 182.316C125.901 189.158 123.519 195.728 119.935 201.649C116.352 207.571 111.637 212.728 106.06 216.827C100.483 220.927 94.1535 223.888 87.4325 225.541C80.7114 227.194 73.7305 227.507 66.8885 226.462C60.0464 225.418 53.4771 223.035 47.5556 219.452C35.6938 212.133 27.1798 200.45 23.8465 186.917C20.5131 173.383 22.627 159.082 29.733 147.092C44.8426 122.101 77.2599 114.932 102.093 129.27C106.053 131.586 110.014 125.527 106.053 123.19C83.9137 110.477 56.2095 111.784 36.3472 128.398C26.8628 136.327 20.0609 146.994 16.8725 158.937C13.6841 170.881 14.2651 183.518 18.5361 195.119C22.807 206.72 30.559 216.717 40.7309 223.743C50.9028 230.768 62.9973 234.477 75.3589 234.363C88.4066 234.279 101.071 229.94 111.428 222.004C121.785 214.068 129.271 202.97 132.748 190.394C136.224 177.817 135.503 164.45 130.692 152.321C125.881 140.192 117.245 129.964 106.093 123.19C102.132 120.774 98.1718 126.834 102.132 129.27Z" fill="#F1DF6F"/>
<path d="M116.154 389.876C119.263 367.697 130.016 317.694 130.888 295.258" stroke="black" stroke-width="3.82196" stroke-linecap="round" stroke-linejoin="round"/>
<path d="M202.948 355.915C193.779 337.459 186.235 326.488 181.165 308.566" stroke="black" stroke-width="3.82196" stroke-linecap="round" stroke-linejoin="round"/>
<path d="M160.096 261.792C153.746 260.103 146.987 260.986 141.283 264.247C135.802 267.482 131.785 272.712 130.075 278.842L129.203 285.337C129.179 289.693 130.329 293.975 132.53 297.734V297.734C133.851 300.665 135.171 303.629 136.491 306.625L134.016 300.803C143.917 324.567 150.472 349.657 160.314 373.5C164.532 383.738 168.235 395.639 178.374 401.62C184.229 404.773 190.934 405.987 197.523 405.085L205.86 404.333C218.158 403.204 230.475 402.075 242.832 401.442C257.507 400.507 272.232 400.712 286.874 402.056C292.716 402.669 300.142 398.907 304.142 394.907C306.41 392.641 308.209 389.951 309.436 386.989C310.663 384.028 311.295 380.854 311.295 377.648C311.295 374.443 310.663 371.269 309.436 368.308C308.209 365.346 306.41 362.656 304.142 360.39L299.191 356.568C295.465 354.369 291.221 353.2 286.894 353.182C270.428 351.717 253.87 351.611 237.387 352.865C229.466 353.36 221.544 354.034 213.623 354.746L202.514 355.756" stroke="black" stroke-width="3.82196" stroke-linecap="round" stroke-linejoin="round"/>
<path d="M275.011 351.538C269.308 320.645 260.476 279.415 254.08 267.93C247.485 256.048 232.019 254.068 220.672 248.681L220.197 248.562L159.996 261.296" stroke="black" stroke-width="3.82196" stroke-linecap="round" stroke-linejoin="round"/>
<path d="M229.228 151.469C224.288 151.349 219.472 153.016 215.663 156.162C213.644 151.79 210.444 148.068 206.424 145.416C202.404 142.764 197.723 141.287 192.909 141.152C178.334 140.914 166.195 153.251 165.779 168.717C165.477 174.956 167.32 181.109 171.003 186.153C174.685 191.198 179.984 194.829 186.018 196.441C187.432 199.586 189.108 202.607 191.028 205.472C192.737 208.335 195.082 210.767 197.88 212.581C201.008 214.403 203.385 214.918 203.563 210.858C203.682 208.422 203.563 205.947 203.563 203.472C212.182 202.324 220.252 198.596 226.713 192.778C227.247 192.778 227.782 192.778 228.317 192.778C231.067 192.898 233.813 192.468 236.395 191.513C238.977 190.558 241.342 189.097 243.351 187.215C245.361 185.334 246.974 183.07 248.097 180.557C249.22 178.044 249.83 175.331 249.89 172.579C249.951 169.827 249.462 167.09 248.451 164.53C247.439 161.97 245.927 159.637 244.003 157.669C242.078 155.701 239.78 154.137 237.242 153.069C234.705 152.001 231.98 151.45 229.228 151.449V151.469Z" fill="#F50F22"/>
<path d="M201.009 200.699C201.167 201.491 202.672 214.561 202.989 215.392C205.999 225.036 215.742 234.364 225.347 232.997L232.693 232.146C237.84 231.415 242.486 228.67 245.609 224.514C248.732 220.359 250.077 215.133 249.348 209.986L245.031 179.668" stroke="black" stroke-width="2.51497" stroke-miterlimit="10"/>
<path d="M234.455 195.906V197.589C234.442 197.815 234.49 198.041 234.594 198.242C234.66 198.446 234.776 198.63 234.931 198.777C235.082 198.937 235.273 199.053 235.485 199.114C235.679 199.22 235.899 199.268 236.119 199.252H236.574C236.848 199.173 237.099 199.031 237.307 198.836C237.462 198.68 237.583 198.495 237.665 198.29C237.747 198.086 237.786 197.868 237.782 197.648V195.965C237.788 195.739 237.741 195.515 237.644 195.311C237.563 195.111 237.441 194.929 237.287 194.777C237.14 194.622 236.956 194.506 236.753 194.44C236.552 194.334 236.325 194.286 236.099 194.302H235.663C235.388 194.376 235.136 194.519 234.931 194.717C234.773 194.873 234.649 195.058 234.564 195.262C234.479 195.466 234.435 195.685 234.436 195.906H234.455Z" fill="black"/>
<path d="M239.07 210.124C238.815 210.226 238.549 210.299 238.278 210.341H238.713C238.43 210.371 238.145 210.371 237.862 210.341H238.297C238.011 210.311 237.73 210.238 237.466 210.124L237.862 210.282C237.667 210.203 237.481 210.103 237.307 209.985C236.916 209.764 236.453 209.707 236.02 209.826C235.811 209.882 235.616 209.979 235.446 210.112C235.276 210.244 235.134 210.41 235.03 210.599C234.913 210.79 234.837 211.002 234.806 211.224C234.776 211.445 234.791 211.671 234.852 211.886C234.995 212.291 235.266 212.639 235.624 212.876C235.967 213.087 236.332 213.26 236.713 213.391C237.104 213.526 237.509 213.612 237.921 213.648C238.257 213.679 238.595 213.679 238.931 213.648C239.281 213.6 239.625 213.52 239.961 213.411C240.166 213.356 240.356 213.255 240.515 213.114C240.699 212.996 240.849 212.832 240.951 212.638C241.176 212.249 241.24 211.787 241.129 211.351C241.002 210.938 240.727 210.585 240.357 210.361C240.166 210.246 239.953 210.17 239.732 210.139C239.51 210.109 239.285 210.124 239.07 210.183V210.124Z" fill="black"/>
<path d="M245.347 179.192L245.702 178.816L245.347 179.192Z" fill="black"/>
<path d="M245.862 193.075L251.803 200.462L252.654 201.531V199.174L248.694 202.996C248.385 203.311 248.212 203.734 248.212 204.175C248.212 204.615 248.385 205.038 248.694 205.353C249.012 205.663 249.438 205.836 249.882 205.836C250.326 205.836 250.752 205.663 251.07 205.353L255.031 201.531C255.334 201.214 255.504 200.792 255.504 200.353C255.504 199.914 255.334 199.491 255.031 199.174L249.09 191.788L248.238 190.719C247.926 190.406 247.502 190.23 247.06 190.23C246.618 190.23 246.194 190.406 245.882 190.719C245.569 191.031 245.394 191.455 245.394 191.897C245.394 192.339 245.569 192.763 245.882 193.075H245.862Z" fill="black"/>
<path d="M205.919 222.977L202.375 249.493C202.318 251.035 202.807 252.548 203.756 253.765C204.705 254.982 206.053 255.826 207.563 256.146V256.146C209.116 256.234 210.649 255.772 211.895 254.842C213.141 253.911 214.019 252.571 214.375 251.057L216.95 231.908" stroke="black" stroke-width="2.51497" stroke-miterlimit="10"/>
<path d="M232.833 156.797C236.45 158.215 239.437 160.886 241.249 164.322L232.833 156.797Z" fill="black"/>
<path d="M232.674 157.608C236.076 158.982 238.881 161.514 240.596 164.757C241.11 165.707 242.576 164.757 242.061 163.905C240.127 160.289 236.967 157.481 233.15 155.984C232.934 155.922 232.704 155.948 232.507 156.056C232.311 156.163 232.164 156.344 232.1 156.558C232.045 156.776 232.076 157.007 232.186 157.202C232.297 157.398 232.479 157.543 232.694 157.608H232.674Z" fill="white"/>
<path d="M204.652 206.283C206.851 206.283 208.633 204.501 208.633 202.303C208.633 200.104 206.851 198.322 204.652 198.322C202.454 198.322 200.672 200.104 200.672 202.303C200.672 204.501 202.454 206.283 204.652 206.283Z" fill="white"/>
<path d="M206.968 202.383C206.959 202.495 206.959 202.607 206.968 202.719C206.968 202.719 206.968 202.343 206.968 202.6L206.849 203.115C206.845 203.175 206.845 203.234 206.849 203.294C206.849 203.294 206.493 203.749 206.513 203.828C206.533 203.907 206.75 203.571 206.513 203.828L206.335 204.026C206.283 204.067 206.237 204.114 206.196 204.165C205.899 204.403 206.196 204.165 206.196 204.165C206.045 204.248 205.899 204.34 205.76 204.442H205.582H205.424L204.909 204.561C204.691 204.561 205.344 204.561 204.909 204.561H204.354C204.354 204.561 203.958 204.561 204.235 204.561H203.938C203.84 204.549 203.74 204.549 203.641 204.561C203.641 204.561 203.998 204.739 203.641 204.561L203.186 204.304C203.186 204.304 202.869 204.145 203.186 204.304C203.503 204.462 203.186 204.304 203.186 204.304C203.186 204.304 202.849 203.888 202.75 203.848C202.651 203.808 202.928 204.125 202.75 203.947C202.69 203.859 202.637 203.766 202.592 203.67C202.585 203.611 202.585 203.551 202.592 203.492C202.394 203.175 202.592 203.848 202.592 203.492C202.53 203.323 202.477 203.151 202.433 202.977C202.433 202.977 202.433 202.818 202.433 202.779C202.433 202.739 202.433 203.076 202.433 202.898C202.433 202.719 202.433 202.779 202.433 202.719C202.433 202.66 202.433 202.402 202.433 202.224C202.433 202.046 202.433 202.6 202.433 202.224C202.424 202.152 202.424 202.079 202.433 202.006C202.504 201.841 202.557 201.668 202.592 201.491V201.709V201.511C202.592 201.511 202.691 201.333 202.75 201.234L202.909 201.036C202.909 200.838 202.631 201.333 202.909 201.036L203.126 200.501C203.126 200.501 203.324 200.244 203.126 200.501L203.285 200.383L203.463 200.264H203.661C203.82 200.264 203.78 200.264 203.542 200.264C203.641 200.264 203.938 200.125 204.037 200.105H204.255C204.612 200.006 203.938 200.105 204.255 200.105H205.107C205.307 200.183 205.512 200.25 205.721 200.303C205.721 200.303 205.384 200.125 205.721 200.303L206.037 200.482L206.216 200.6L206.374 200.739C206.513 200.858 206.612 200.996 206.731 201.115C206.849 201.234 206.552 200.798 206.731 201.115C206.795 201.194 206.848 201.28 206.889 201.373L207.028 201.65C207.028 201.65 206.889 201.254 207.028 201.65C207.066 201.858 207.119 202.063 207.186 202.264C207.186 202.264 207.186 201.828 207.186 202.145C207.186 202.462 207.186 202.442 207.186 202.581C207.186 203.024 207.361 203.449 207.672 203.764C207.983 204.079 208.406 204.259 208.849 204.264C209.289 204.249 209.707 204.066 210.016 203.753C210.325 203.44 210.503 203.021 210.513 202.581C210.518 201.415 210.169 200.276 209.511 199.313C208.853 198.351 207.918 197.612 206.83 197.194C205.764 196.797 204.604 196.732 203.501 197.008C202.398 197.284 201.404 197.887 200.651 198.739C199.861 199.62 199.367 200.727 199.24 201.903C199.114 203.08 199.36 204.267 199.945 205.296C200.529 206.325 201.422 207.144 202.498 207.638C203.574 208.131 204.777 208.274 205.938 208.046C207.21 207.794 208.357 207.114 209.189 206.12C210.021 205.125 210.488 203.877 210.513 202.581C210.513 202.139 210.338 201.716 210.026 201.404C209.714 201.092 209.291 200.917 208.849 200.917C208.63 200.89 208.407 200.905 208.193 200.964C207.979 201.023 207.779 201.123 207.605 201.259C207.43 201.395 207.284 201.565 207.174 201.758C207.065 201.95 206.995 202.163 206.968 202.383Z" fill="black"/>
<path d="M218.375 231.829L203.998 239.928L205.444 220.125C207.328 222.863 209.499 225.392 211.919 227.67C213.976 229.199 216.132 230.588 218.375 231.829Z" fill="black"/>
<path d="M197.415 238.799L220.808 240.887L219.726 253.017C219.449 256.119 217.951 258.984 215.562 260.982C213.172 262.98 210.087 263.947 206.985 263.67C205.449 263.533 203.955 263.095 202.589 262.38C201.222 261.666 200.009 260.689 199.02 259.506C198.031 258.323 197.284 256.957 196.823 255.485C196.362 254.013 196.195 252.465 196.332 250.929L197.415 238.799Z" fill="#F1DF6F"/>
<path d="M256.12 299.812C257.744 311.001 264.457 340.389 266.022 351.577" stroke="black" stroke-width="3.82196" stroke-linecap="round" stroke-linejoin="round"/>
<path d="M38.4852 231.09C41.5476 231.09 44.03 228.607 44.03 225.545C44.03 222.482 41.5476 220 38.4852 220C35.4229 220 32.9404 222.482 32.9404 225.545C32.9404 228.607 35.4229 231.09 38.4852 231.09Z" stroke="#07080D" stroke-width="1.96049" stroke-miterlimit="10"/>
<path d="M38.3075 234.141H41.0799C44.6093 234.141 47.9941 235.543 50.4898 238.038C52.9854 240.534 54.3875 243.919 54.3875 247.448V247.448H25C25 243.919 26.402 240.534 28.8977 238.038C31.3933 235.543 34.7782 234.141 38.3075 234.141V234.141Z" stroke="#07080D" stroke-width="1.96049" stroke-linecap="round" stroke-linejoin="round"/>
<path d="M410.294 327H407.485C366.9 327 334 359.897 334 400.477C334 441.057 366.9 473.954 407.485 473.954H410.294C450.879 473.954 483.779 441.057 483.779 400.477C483.779 359.897 450.879 327 410.294 327Z" fill="black"/>
<path d="M311.032 377.023H209.404C205.335 377.023 202.037 380.322 202.037 384.39V384.41C202.037 388.478 205.335 391.777 209.404 391.777H311.032C315.101 391.777 318.399 388.478 318.399 384.41V384.39C318.399 380.322 315.101 377.023 311.032 377.023Z" fill="black"/>
<path d="M447.871 387.758H74.21C71.0572 387.885 68.0757 389.227 65.8899 391.502C63.7041 393.778 62.4834 396.811 62.4834 399.966C62.4834 403.122 63.7041 406.155 65.8899 408.43C68.0757 410.706 71.0572 412.048 74.21 412.175H447.871C451.023 412.048 454.005 410.706 456.191 408.43C458.377 406.155 459.597 403.122 459.597 399.966C459.597 396.811 458.377 393.778 456.191 391.502C454.005 389.227 451.023 387.885 447.871 387.758Z" fill="#F1DF6F"/>
<path d="M338.4 247.532C340.698 246.483 342.995 245.354 345.252 244.186" stroke="black" stroke-width="1.26738" stroke-linecap="round" stroke-linejoin="round"/>
<path d="M357.808 236.483C364.035 232.114 369.349 226.571 373.452 220.165C381.373 207.373 381.968 189.075 371.472 178.381C363.175 169.985 349.946 168.103 338.441 170.797C334.63 171.473 331.083 173.201 328.203 175.787C326.792 177.104 325.805 178.811 325.368 180.691C324.931 182.57 325.063 184.538 325.747 186.342C326.784 188.27 328.342 189.869 330.242 190.956C337.807 195.788 347.511 196.422 356.204 194.204C362.558 192.454 368.455 189.341 373.482 185.079C378.51 180.818 382.548 175.511 385.314 169.529" stroke="black" stroke-width="1.26738" stroke-linecap="round" stroke-linejoin="round" stroke-dasharray="14.73 14.73"/>
<path d="M387.79 162.638C388.465 160.189 388.916 157.683 389.137 155.152" stroke="black" stroke-width="1.26738" stroke-linecap="round" stroke-linejoin="round"/>
<path d="M420.051 126.37L384.839 114.465C384.124 114.223 383.349 114.607 383.107 115.322L374.304 141.36C374.062 142.075 374.446 142.851 375.161 143.092L410.373 154.997C411.088 155.239 411.863 154.855 412.105 154.14L420.908 128.102C421.15 127.387 420.766 126.612 420.051 126.37Z" stroke="black" stroke-width="1.80206" stroke-linecap="round" stroke-linejoin="round"/>
<path d="M383.115 115.328L398.106 137.666L420.048 126.378" stroke="black" stroke-width="1.80206" stroke-linecap="round" stroke-linejoin="round"/>
<path d="M374.303 141.389L392.898 131.666" stroke="black" stroke-width="1.80206" stroke-linecap="round" stroke-linejoin="round"/>
<path d="M404.998 134.895L412.107 154.163" stroke="black" stroke-width="1.80206" stroke-linecap="round" stroke-linejoin="round"/>
<path d="M316.598 71.0293H270.715C266.289 71.0204 261.955 72.2938 258.237 74.6954C254.519 77.097 251.576 80.5241 249.764 84.5624C247.953 88.6008 247.349 93.0775 248.027 97.4514C248.705 101.825 250.636 105.909 253.585 109.209L252.853 125.666L264.002 115.922C266.18 116.577 268.441 116.91 270.715 116.913H316.598C322.566 116.737 328.231 114.243 332.39 109.96C336.549 105.677 338.876 99.9414 338.876 93.971C338.876 88.0006 336.549 82.2652 332.39 77.9819C328.231 73.6986 322.566 71.2047 316.598 71.0293V71.0293Z" stroke="black" stroke-width="2.0595" stroke-linecap="round" stroke-linejoin="round"/>
<path d="M308.954 85.6035H274.517" stroke="black" stroke-width="1.70305" stroke-linecap="round" stroke-linejoin="round"/>
<path d="M296.558 94.3379H275.329" stroke="black" stroke-width="1.70305" stroke-linecap="round" stroke-linejoin="round"/>
<path d="M313.31 105.27H290.715" stroke="black" stroke-width="1.70305" stroke-linecap="round" stroke-linejoin="round"/>
<path d="M59.8542 213.789H19.793V253.85H59.8542V213.789Z" stroke="black" stroke-width="1.70305" stroke-linecap="round" stroke-linejoin="round"/>
<path d="M288.281 390.133H433.574C435.027 390.052 436.403 389.458 437.459 388.457C438.514 387.456 439.18 386.113 439.337 384.667L456.328 280.029C456.542 279.123 456.558 278.182 456.375 277.27C456.192 276.358 455.813 275.497 455.266 274.744C454.719 273.992 454.015 273.367 453.204 272.912C452.393 272.457 451.493 272.182 450.565 272.107H305.212C303.758 272.184 302.38 272.777 301.324 273.778C300.267 274.78 299.603 276.125 299.449 277.573L282.459 382.211C282.244 383.121 282.23 384.067 282.416 384.983C282.603 385.899 282.986 386.763 283.54 387.517C284.094 388.27 284.804 388.894 285.623 389.346C286.441 389.797 287.348 390.066 288.281 390.133Z" fill="#FDFEFE" stroke="black" stroke-width="3.82196" stroke-linecap="round" stroke-linejoin="round"/>
<path d="M370.015 338.657C375.844 338.657 380.57 333.931 380.57 328.102C380.57 322.273 375.844 317.547 370.015 317.547C364.186 317.547 359.46 322.273 359.46 328.102C359.46 333.931 364.186 338.657 370.015 338.657Z" stroke="black" stroke-width="2.0595" stroke-linecap="round" stroke-linejoin="round"/>
<path d="M421.157 245.296C431 245.296 438.979 237.316 438.979 227.473C438.979 217.63 431 209.65 421.157 209.65C411.313 209.65 403.334 217.63 403.334 227.473C403.334 237.316 411.313 245.296 421.157 245.296Z" stroke="black" stroke-width="2.0595" stroke-linecap="round" stroke-linejoin="round"/>
<path d="M414.186 223.868L415.989 230.541C416.265 232.381 416.941 234.139 417.969 235.69C418.477 236.309 419.19 236.725 419.978 236.863C420.766 237.001 421.578 236.852 422.266 236.443C423.835 235.21 425.125 233.657 426.048 231.888L442.267 208.421C443.356 206.857 440.802 205.372 439.712 206.936L426.227 226.442L422.939 231.076C422.462 231.872 421.918 232.627 421.315 233.334C420.84 233.848 420.484 234.185 419.989 233.631C419.642 233.017 419.407 232.346 419.296 231.65L418.523 228.838L416.998 223.076C416.893 222.7 416.643 222.382 416.304 222.19C415.964 221.999 415.562 221.951 415.187 222.056C414.811 222.161 414.493 222.411 414.301 222.751C414.11 223.09 414.062 223.492 414.167 223.868H414.186Z" fill="black"/>
</g>
<defs>
<clipPath id="clip0_26_2597">
<rect width="487.963" height="432" fill="white" transform="translate(15 70)"/>
</clipPath>
</defs>
</svg>
